<svg viewBox="0 0 805 805" xmlns="http://www.w3.org/2000/svg" aria-label="BidWolf Icon">
  <g transform="translate(-109.5,-109)">
    <path fill="#22c55e" fill-rule="evenodd" d="M 350 153 L 301 407 L 297 407 L 295 360 L 292 357 L 157 481 L 157 484 L 229 485 L 166 584 L 165 589 L 438 870 L 442 870 L 562 656 L 701 656 L 702 690 L 705 691 L 761 649 L 762 646 L 737 646 L 722 664 L 717 667 L 714 642 L 592 615 L 484 662 L 480 661 L 481 658 L 586 593 L 732 630 L 787 629 L 867 552 L 867 549 L 675 456 L 668 447 L 622 364 L 467 306 L 365 170 Z M 537 437 L 590 436 L 615 470 L 571 467 L 538 440 Z M 371 239 L 432 328 L 432 331 L 350 390 L 349 382 L 367 240 Z"/>
  </g>
</svg>
